<svg width="70" height="30" viewBox="0 0 70 30" fill="none" xmlns="http://www.w3.org/2000/svg">
<path d="M0.889653 19.1758V11.1375H3.01435V12.5557H3.10855C3.27602 12.0847 3.55512 11.7132 3.94587 11.441C4.33662 11.1689 4.80413 11.0328 5.34839 11.0328C5.89962 11.0328 6.36887 11.1706 6.75613 11.4463C7.14339 11.7184 7.40156 12.0882 7.53065 12.5557H7.61438C7.77836 12.0952 8.07491 11.7271 8.50404 11.4515C8.93665 11.1724 9.44777 11.0328 10.0374 11.0328C10.7875 11.0328 11.3963 11.2718 11.8638 11.7498C12.3348 12.2243 12.5703 12.8976 12.5703 13.7698V19.1758H10.3461V14.2094C10.3461 13.7629 10.2275 13.4279 9.99028 13.2046C9.75304 12.9814 9.45649 12.8697 9.10063 12.8697C8.69592 12.8697 8.38018 12.9988 8.15341 13.257C7.92663 13.5117 7.81325 13.8483 7.81325 14.267V19.1758H5.65191V14.1623C5.65191 13.7681 5.53853 13.4541 5.31175 13.2203C5.08847 12.9866 4.79366 12.8697 4.42733 12.8697C4.17962 12.8697 3.95634 12.9325 3.75748 13.0581C3.5621 13.1802 3.40685 13.3529 3.29172 13.5762C3.17658 13.796 3.11902 14.0542 3.11902 14.3507V19.1758H0.889653ZM17.9631 19.3328C17.1502 19.3328 16.4472 19.1601 15.8541 18.8147C15.2645 18.4658 14.8092 17.9809 14.4883 17.3598C14.1673 16.7353 14.0068 16.0114 14.0068 15.188C14.0068 14.3577 14.1673 13.632 14.4883 13.011C14.8092 12.3865 15.2645 11.9016 15.8541 11.5562C16.4472 11.2073 17.1502 11.0328 17.9631 11.0328C18.776 11.0328 19.4773 11.2073 20.0669 11.5562C20.66 11.9016 21.117 12.3865 21.438 13.011C21.759 13.632 21.9195 14.3577 21.9195 15.188C21.9195 16.0114 21.759 16.7353 21.438 17.3598C21.117 17.9809 20.66 18.4658 20.0669 18.8147C19.4773 19.1601 18.776 19.3328 17.9631 19.3328ZM17.9736 17.6058C18.3434 17.6058 18.6522 17.5011 18.8999 17.2918C19.1476 17.079 19.3343 16.7894 19.4599 16.4231C19.5889 16.0568 19.6535 15.6398 19.6535 15.1723C19.6535 14.7048 19.5889 14.2879 19.4599 13.9216C19.3343 13.5553 19.1476 13.2657 18.8999 13.0529C18.6522 12.8401 18.3434 12.7336 17.9736 12.7336C17.6003 12.7336 17.2863 12.8401 17.0316 13.0529C16.7804 13.2657 16.5903 13.5553 16.4612 13.9216C16.3356 14.2879 16.2728 14.7048 16.2728 15.1723C16.2728 15.6398 16.3356 16.0568 16.4612 16.4231C16.5903 16.7894 16.7804 17.079 17.0316 17.2918C17.2863 17.5011 17.6003 17.6058 17.9736 17.6058ZM23.3691 19.1758V11.1375H25.5304V12.54H25.6142C25.7607 12.0411 26.0067 11.6643 26.352 11.4096C26.6974 11.1515 27.0952 11.0224 27.5452 11.0224C27.6569 11.0224 27.7772 11.0294 27.9063 11.0433C28.0354 11.0573 28.1488 11.0764 28.2465 11.1009V13.079C28.1418 13.0476 27.997 13.0197 27.8121 12.9953C27.6272 12.9709 27.458 12.9587 27.3045 12.9587C26.9765 12.9587 26.6835 13.0302 26.4253 13.1732C26.1706 13.3128 25.9683 13.5082 25.8183 13.7594C25.6717 14.0106 25.5985 14.3001 25.5985 14.6281V19.1758H23.3691ZM32.6882 19.3328C31.8614 19.3328 31.1496 19.1653 30.553 18.8304C29.9599 18.492 29.5029 18.014 29.1819 17.3965C28.861 16.7755 28.7005 16.0411 28.7005 15.1933C28.7005 14.3664 28.861 13.6407 29.1819 13.0162C29.5029 12.3917 29.9547 11.905 30.5373 11.5562C31.1235 11.2073 31.8108 11.0328 32.5992 11.0328C33.1295 11.0328 33.6232 11.1183 34.0803 11.2893C34.5408 11.4567 34.942 11.7097 35.2839 12.0481C35.6293 12.3865 35.8979 12.8121 36.0898 13.325C36.2817 13.8344 36.3777 14.431 36.3777 15.1148V15.7271H29.5901V14.3455H34.2791C34.2791 14.0245 34.2093 13.7402 34.0698 13.4925C33.9302 13.2448 33.7366 13.0511 33.4889 12.9116C33.2447 12.7685 32.9603 12.697 32.6359 12.697C32.2975 12.697 31.9974 12.7755 31.7358 12.9325C31.4776 13.086 31.2752 13.2936 31.1287 13.5553C30.9822 13.8134 30.9072 14.1013 30.9037 14.4188V15.7323C30.9037 16.13 30.9769 16.4737 31.1235 16.7633C31.2735 17.0528 31.4846 17.2761 31.7567 17.4331C32.0288 17.5901 32.3515 17.6686 32.7248 17.6686C32.9725 17.6686 33.1993 17.6337 33.4052 17.5639C33.611 17.4942 33.7872 17.3895 33.9337 17.2499C34.0803 17.1104 34.1919 16.9394 34.2687 16.7371L36.3306 16.8731C36.2259 17.3686 36.0113 17.8012 35.6869 18.171C35.3659 18.5373 34.9507 18.8234 34.4413 19.0293C33.9355 19.2316 33.3511 19.3328 32.6882 19.3328Z" fill="#93CDFB"/>
<path d="M65.0898 15.0012L65.9582 14.1329L66.8266 15.0012L65.9582 15.8696L65.0898 15.0012ZM46.6688 16.2293C45.9905 16.2293 45.4407 15.6795 45.4407 15.0012C45.4407 14.323 45.9905 13.7732 46.6688 13.7732V16.2293ZM58.5898 6.76444L65.9582 14.1329L64.2215 15.8696L56.853 8.50119L58.5898 6.76444ZM65.9582 15.8696L58.5898 23.238L56.853 21.5013L64.2215 14.1329L65.9582 15.8696ZM65.0898 16.2293H46.6688V13.7732H65.0898V16.2293Z" fill="#93CDFB"/>
</svg>
