<svg width="15" height="14" viewBox="0 0 15 14" fill="none" xmlns="http://www.w3.org/2000/svg">
<path d="M3 6.5C2.72386 6.5 2.5 6.72386 2.5 7C2.5 7.27614 2.72386 7.5 3 7.5V7V6.5ZM12.3536 7.35355C12.5488 7.15829 12.5488 6.84171 12.3536 6.64645L9.17157 3.46447C8.97631 3.2692 8.65973 3.2692 8.46447 3.46447C8.2692 3.65973 8.2692 3.97631 8.46447 4.17157L11.2929 7L8.46447 9.82843C8.2692 10.0237 8.2692 10.3403 8.46447 10.5355C8.65973 10.7308 8.97631 10.7308 9.17157 10.5355L12.3536 7.35355ZM3 7V7.5H12V7V6.5H3V7Z" fill="black"/>
<path d="M7.5 0.0996094C11.5935 0.0996094 14.9004 3.19562 14.9004 7C14.9004 10.8044 11.5935 13.9004 7.5 13.9004C3.40648 13.9004 0.0996094 10.8044 0.0996094 7C0.0996094 3.19562 3.40648 0.0996094 7.5 0.0996094Z" stroke="black" stroke-width="0.2"/>
</svg>
